External Loads File
version=1
nRows=54
nColumns=13
Range=5.000000e-03-10 seconds
endheader
time 	forceRightX 	forceRightY 	forceRightZ 	pointRightX 	pointRightY 	pointRightZ 	forceLeftX 	forceLeftY 	forceLeftZ 	pointLeftX 	pointLeftY 	pointLeftZ 		
5.005000 -109.589339 -47.744015 -0.000000 0.233368 0.481078 -0.161466 237.422639 738.084049 -0.000000 0.265722 0.148391 -0.399725
5.010000 -109.047004 -33.819367 -0.000000 0.243347 0.483265 -0.161803 243.113340 691.203797 -0.000000 0.256835 0.145538 -0.400545
5.015000 -106.324282 -17.625842 -0.000000 0.253239 0.484952 -0.161966 244.543478 639.241415 -0.000000 0.247988 0.143565 -0.401185
5.020000 -101.428877 0.444880 -0.000000 0.263237 0.486465 -0.161887 242.289299 582.759209 -0.000000 0.239157 0.142302 -0.401815
5.025000 -94.440021 19.622754 -0.000000 0.273057 0.487006 -0.161924 235.895054 522.862088 -0.000000 0.230500 0.141684 -0.402447
5.030000 -85.579476 39.148543 -0.000000 0.282625 0.487067 -0.161892 225.660080 460.389465 -0.000000 0.222028 0.141694 -0.403050
5.035000 -75.116347 58.403007 -0.000000 0.292143 0.486383 -0.161862 212.547563 395.775749 -0.000000 0.213643 0.142558 -0.403515
5.040000 -63.555564 76.709735 -0.000000 0.300849 0.485459 -0.161581 196.397600 329.965340 -0.000000 0.204978 0.144286 -0.402947
5.045000 -51.473671 93.773776 -0.000000 0.309453 0.483843 -0.161487 177.693004 263.632941 -0.000000 0.196796 0.146744 -0.402873
5.050000 -39.478091 109.596101 -0.000000 0.317576 0.481704 -0.161476 156.897599 197.730594 -0.000000 0.188750 0.149925 -0.402610
5.055000 -28.027916 124.520290 -0.000000 0.325338 0.478875 -0.161297 134.778140 133.464182 -0.000000 0.180858 0.154019 -0.402191
5.060000 -17.783868 139.124640 -0.000000 0.332290 0.475501 -0.161524 111.872855 72.558902 -0.000000 0.173161 0.158687 -0.401768
5.065000 -8.803234 154.360259 -0.000000 0.339161 0.471480 -0.161276 89.099571 16.175516 -0.000000 0.165674 0.163946 -0.401317
5.070000 -1.435919 171.293059 -0.000000 0.345436 0.466890 -0.161153 66.865844 -34.276951 -0.000000 0.158458 0.169753 -0.400895
5.075000 4.276899 191.065885 -0.000000 0.350751 0.461411 -0.161192 45.627980 -77.719993 -0.000000 0.151527 0.176057 -0.400585
5.080000 8.927920 214.643204 -0.000000 0.356228 0.455286 -0.160802 25.512217 -113.307422 -0.000000 0.145049 0.182941 -0.400426
5.085000 12.365882 242.621777 -0.000000 0.360858 0.448457 -0.160259 6.987552 -140.218306 -0.000000 0.138933 0.190423 -0.400592
5.090000 14.974801 275.007360 -0.000000 0.365086 0.440985 -0.159634 -9.607577 -158.101036 -0.000000 0.133092 0.198402 -0.400847
5.095000 17.454711 311.172021 -0.000000 0.369228 0.432009 -0.159125 -24.021995 -166.970154 -0.000000 0.127735 0.206760 -0.401001
5.100000 18.647590 350.102807 -0.000000 0.373002 0.423144 -0.158864 -34.913799 -167.461674 -0.000000 0.122639 0.215250 -0.400943
5.105000 18.535387 390.393575 -0.000000 0.376537 0.414042 -0.159270 -41.771287 -160.677193 -0.000000 0.117973 0.223828 -0.400555
5.110000 17.828394 430.458494 -0.000000 0.380050 0.404514 -0.160087 -44.624753 -148.029025 -0.000000 0.113674 0.232824 -0.400225
5.115000 15.886962 468.864640 -0.000000 0.382968 0.394669 -0.160595 -43.288885 -131.329532 -0.000000 0.109775 0.242006 -0.400058
5.120000 13.389346 504.459515 -0.000000 0.385603 0.384385 -0.160948 -38.360404 -112.323017 -0.000000 0.106374 0.251445 -0.400070
5.125000 10.284077 536.593871 -0.000000 0.387906 0.374022 -0.161540 -30.450296 -92.701648 -0.000000 0.103493 0.261222 -0.400109
5.130000 6.708055 565.082501 -0.000000 0.389830 0.363610 -0.162096 -20.423154 -73.843452 -0.000000 0.101113 0.271218 -0.400258
5.135000 2.839917 590.117420 -0.000000 0.391008 0.353053 -0.162266 -9.223672 -56.743481 -0.000000 0.099302 0.281303 -0.400400
5.140000 -0.146047 612.144718 -0.000000 0.391860 0.342268 -0.162478 2.163349 -41.998115 -0.000000 0.098101 0.291611 -0.400596
5.145000 -2.308649 631.816333 -0.000000 0.392272 0.331440 -0.162306 13.027141 -29.877934 -0.000000 0.097614 0.302073 -0.400906
5.150000 -3.624129 649.963484 -0.000000 0.391983 0.320615 -0.162539 22.805422 -20.373741 -0.000000 0.097740 0.312510 -0.401183
5.155000 -3.038467 667.522777 -0.000000 0.391294 0.309659 -0.161789 31.076760 -13.379683 -0.000000 0.098419 0.323012 -0.401357
5.160000 -0.851866 685.345201 -0.000000 0.389746 0.298961 -0.162392 37.607569 -8.696245 -0.000000 0.099831 0.333555 -0.401595
5.165000 3.703761 704.050379 -0.000000 0.387770 0.288304 -0.162414 42.249089 -6.178393 -0.000000 0.102006 0.344004 -0.401775
5.170000 10.648582 723.953918 -0.000000 0.385303 0.277852 -0.162494 44.940870 -5.705467 -0.000000 0.104653 0.354386 -0.401881
5.175000 20.445164 745.097830 -0.000000 0.382213 0.267537 -0.162598 45.652191 -7.257694 -0.000000 0.107928 0.364613 -0.401835
5.180000 33.569575 767.318898 -0.000000 0.378596 0.257456 -0.162745 44.353581 -10.834976 -0.000000 0.111859 0.374873 -0.401896
5.185000 50.134622 790.289363 -0.000000 0.374326 0.247504 -0.162740 41.028733 -16.326840 -0.000000 0.116319 0.385042 -0.401898
5.190000 69.104339 813.585940 -0.000000 0.369490 0.238081 -0.162815 35.749612 -23.393776 -0.000000 0.121502 0.394988 -0.401927
5.195000 90.377913 836.594156 -0.000000 0.364052 0.228923 -0.162868 28.670709 -31.569596 -0.000000 0.127142 0.404569 -0.401847
5.200000 113.898415 858.571552 -0.000000 0.358046 0.220089 -0.163023 20.017597 -40.263348 -0.000000 0.133372 0.413852 -0.401880
5.205000 138.759483 878.857358 -0.000000 0.351576 0.211749 -0.163077 10.120240 -48.858405 -0.000000 0.140285 0.422737 -0.401900
5.210000 164.032227 896.895740 -0.000000 0.344660 0.203722 -0.163085 -0.616120 -56.871059 -0.000000 0.147555 0.431143 -0.402028
5.215000 188.565749 912.277007 -0.000000 0.337304 0.196254 -0.163087 -11.736985 -63.999956 -0.000000 0.155231 0.438883 -0.402048
5.220000 212.813780 924.279064 -0.000000 0.329624 0.189134 -0.163105 -22.918722 -70.062495 -0.000000 0.163381 0.446239 -0.402089
5.225000 235.390155 932.520658 -0.000000 0.321614 0.182616 -0.163042 -33.760195 -74.957687 -0.000000 0.171832 0.453104 -0.402139
5.230000 255.808210 936.442581 -0.000000 0.313304 0.176638 -0.162946 -43.986896 -78.592824 -0.000000 0.180556 0.459395 -0.402262
5.235000 274.607576 935.199674 -0.000000 0.304611 0.171107 -0.162876 -53.498753 -80.794645 -0.000000 0.189639 0.465258 -0.402417
5.240000 290.084551 928.578686 -0.000000 0.295739 0.166201 -0.162866 -62.070080 -81.448594 -0.000000 0.198812 0.470475 -0.402335
5.245000 302.805668 915.679468 -0.000000 0.286873 0.161726 -0.162581 -69.674187 -80.282839 -0.000000 0.208285 0.475130 -0.402383
5.250000 312.500539 895.752788 -0.000000 0.277806 0.157821 -0.162287 -76.186143 -77.097303 -0.000000 0.217754 0.479251 -0.402275
5.255000 319.266310 867.887541 -0.000000 0.268690 0.154396 -0.161880 -81.505142 -71.752491 -0.000000 0.227421 0.482698 -0.402192
5.260000 322.796629 831.434688 -0.000000 0.259628 0.151580 -0.161507 -85.511090 -64.280216 -0.000000 0.237351 0.485364 -0.402118
5.265000 322.231754 786.301129 -0.000000 0.250555 0.149413 -0.161204 -88.055536 -54.932845 -0.000000 0.247187 0.487472 -0.402073
5.270000 317.521378 732.576882 -0.000000 0.241436 0.147836 -0.160660 -89.058221 -43.972778 -0.000000 0.256913 0.488837 -0.402402
